<svg viewBox="0 0 243 40" fill="none" xmlns="http://www.w3.org/2000/svg"><g fill-rule="nonzero" fill="none"><path d="m31.33 25.117-2.2-2-3.394 2.436 5.026 4.564a2.781 2.781 0 0 0 4.652-2.058v-9.452l-4.085 2.932v3.578h.001Zm4.084-17.774 1.478 2.382 3.324-2.389c-1.58-2.55-2.91-4.689-3.745-6.018a2.783 2.783 0 0 0-5.149 1.47v10.93l4.085-2.932.007-3.443Z" fill="#ED601A"/><path d="M54.52.327a2.772 2.772 0 0 0-2.897.217l-3.677 2.642-1.647 1.19L7.367 32.32l-3.282 2.353V5.883L20.94 21.176l3.393-2.436L4.66.882A2.786 2.786 0 0 0 0 2.944v34.273a2.78 2.78 0 0 0 4.405 2.258l5.346-3.837L48.668 7.694l3.283-2.353v21.012c-2.782-4.544-5.575-9.08-8.38-13.61l-3.336 2.396c4 6.468 8.426 13.647 10.621 17.313a2.781 2.781 0 0 0 5.177-1.43V2.804A2.773 2.773 0 0 0 54.52.327Z" fill="#ED601A"/><path d="M118.003 23.242c.001.604-.032 1.208-.101 1.807H103.8c.575 2.873 2.589 4.125 5.111 4.125a8.041 8.041 0 0 0 5.028-1.908l3.139 3.447c-2.256 2.073-5.132 3.017-8.47 3.017-6.097 0-10.323-4.146-10.323-10.405 0-6.259 4.104-10.53 10.057-10.53 5.72.003 9.64 4.25 9.661 10.447Zm-14.181-1.847h8.804c-.491-2.543-2.037-3.983-4.331-3.983-2.525 0-4.003 1.522-4.473 3.983Zm30.244-8.167-.8 5.316a8.691 8.691 0 0 0-3.242-.636c-2.485 0-4.186 1.52-4.186 4.47v10.836h-5.367V13.33h5.19v2.176c1.252-1.868 3.16-2.708 5.603-2.708.952-.022 1.9.124 2.802.43Zm14.597 4.864h-7.202v7.266c0 2.482 1.313 3.385 2.976 3.385 1.273 0 2.647-.635 3.737-1.291l1.969 4.185c-1.743 1.191-3.765 2.095-6.588 2.095-4.927 0-7.45-2.79-7.45-7.944V7.418h5.356v5.911h7.204l-.002 4.763Zm22.612 15.124h-5.233v-2.195c-1.291 1.6-3.221 2.708-5.95 2.708-5.48 0-9.626-4.494-9.626-10.465 0-5.972 4.146-10.466 9.626-10.466 2.729 0 4.637 1.108 5.95 2.729v-2.198h5.233v19.887Zm-15.332-9.953c0 3.038 1.991 5.48 5.132 5.48 3.059 0 5.132-2.338 5.132-5.48 0-3.14-2.073-5.48-5.132-5.48-3.139 0-5.129 2.452-5.129 5.48h-.003Zm29.687-5.171h-6.176v15.124h-5.355V10.863c0-4.658 2.482-7.717 7.122-7.717 2.708 0 4.598.779 6.118 1.786L185.2 9.103a7.237 7.237 0 0 0-3.407-.964c-1.539 0-2.339.94-2.339 2.79v2.4h6.176v4.763Zm21.429 5.172c0 5.992-4.576 10.465-10.774 10.465-6.198 0-10.734-4.47-10.734-10.465 0-5.996 4.555-10.466 10.734-10.466s10.774 4.472 10.774 10.466Zm-16.049 0c0 3.22 2.258 5.48 5.275 5.48 3.016 0 5.294-2.26 5.294-5.48 0-3.222-2.285-5.48-5.299-5.48-3.014 0-5.275 2.256-5.275 5.48h.005Zm31.74-10.036-.8 5.316a8.705 8.705 0 0 0-3.242-.636c-2.482 0-4.186 1.52-4.186 4.471v10.835h-5.36V13.33h5.191v2.176c1.251-1.868 3.16-2.708 5.602-2.708.95-.02 1.896.125 2.795.43Zm19.327 10.014c.002.604-.032 1.208-.101 1.807h-14.101c.574 2.873 2.588 4.125 5.11 4.125a8.044 8.044 0 0 0 5.029-1.908l3.139 3.447c-2.257 2.073-5.132 3.017-8.471 3.017-6.094 0-10.329-4.146-10.329-10.405 0-6.259 4.103-10.53 10.056-10.53 5.727.003 9.649 4.25 9.668 10.447Zm-14.181-1.847h8.809c-.496-2.543-2.037-3.983-4.334-3.983-2.524 0-4.004 1.522-4.475 3.983ZM90.962 33.217H84L73.195 4.47h6.1l8.234 22.94 8.278-22.94h5.958L90.962 33.217Z" fill="#FFF"/></g></svg>