<?xml version="1.0" encoding="utf-8"?>
<!-- Generator: Adobe Illustrator 16.0.0, SVG Export Plug-In . SVG Version: 6.00 Build 0)  -->
<!DOCTYPE svg PUBLIC "-//W3C//DTD SVG 1.1//EN" "http://www.w3.org/Graphics/SVG/1.1/DTD/svg11.dtd">
<svg version="1.1" id="Layer_1" xmlns="http://www.w3.org/2000/svg" xmlns:xlink="http://www.w3.org/1999/xlink" x="0px" y="0px"
	 width="145.161px" height="51.166px" viewBox="-1.13 -0.592 145.161 51.166" enable-background="new -1.13 -0.592 145.161 51.166"
	 xml:space="preserve">
<g id="Layer_2">
	<g id="Layer_1-2">
		<path fill="#5AE2E4" d="M49.197,20.569c0.006,0.109-0.038,0.217-0.119,0.291L31.679,38.262c-0.113,0.112-0.296,0.112-0.41,0
			l-4.259-4.233c-0.113-0.113-0.113-0.297,0-0.409l15.555-15.611c0.468-0.468,0.383-0.291,0.383-0.936c0-3.191,0-6.384,0-9.578
			c0-0.164,0-0.326,0-0.513c-0.122,0-0.215-0.029-0.308-0.029c-3.346,0-6.69,0-10.035,0c-0.195-0.01-0.383,0.072-0.506,0.224
			l-0.681,0.7L26.763,3.22l2.175-2.232c0.131-0.144,0.319-0.221,0.512-0.206c0.583,0,19.744,0,19.744,0s0,13.25,0,19.456
			C49.197,20.348,49.191,20.459,49.197,20.569z"/>
		<path fill="#5AE2E4" d="M29.415,49.524c-0.109,0.007-0.215-0.039-0.291-0.12l-17.401-17.4c-0.112-0.112-0.112-0.298,0-0.412
			l4.23-4.256c0.113-0.112,0.297-0.112,0.411,0l15.612,15.549c0.468,0.47,0.291,0.383,0.937,0.383h9.579c0.163,0,0.326,0,0.512,0
			c0-0.121,0.029-0.215,0.029-0.308c0-3.345,0-6.69,0-10.034c0.01-0.194-0.073-0.384-0.225-0.506l-0.697-0.682l4.654-4.655
			l2.231,2.18c0.145,0.13,0.222,0.318,0.209,0.512c0,0.582,0,19.744,0,19.744s-13.249,0-19.455,0
			C29.636,49.524,29.527,49.519,29.415,49.524z"/>
		<path fill="#5AE2E4" d="M20.228,0.697c0.11-0.005,0.217,0.038,0.291,0.119l17.403,17.399c0.115,0.113,0.117,0.298,0.003,0.412
			c-0.001,0.001-0.001,0.001-0.003,0.001l-4.231,4.257c-0.115,0.113-0.296,0.113-0.411,0L17.668,7.33
			c-0.47-0.468-0.291-0.384-0.938-0.384c-3.191,0-6.383,0-9.578,0c-0.162,0-0.325,0-0.511,0c0,0.124-0.029,0.215-0.029,0.308
			c0,3.347,0,6.691,0,10.036c-0.012,0.194,0.073,0.382,0.224,0.506l0.698,0.68l-4.655,4.655l-2.229-2.176
			c-0.144-0.13-0.223-0.318-0.209-0.512c0-0.582,0-19.744,0-19.744s13.25-0.003,19.456-0.003
			C20.006,0.697,20.117,0.697,20.228,0.697z"/>
		<path fill="#5AE2E4" d="M0.375,29.673c-0.004-0.11,0.04-0.216,0.119-0.29l17.4-17.405c0.112-0.115,0.296-0.115,0.411-0.002
			c0,0.001,0,0.001,0.001,0.002l4.256,4.233c0.112,0.114,0.112,0.297,0,0.41L7.01,32.233c-0.468,0.469-0.384,0.292-0.384,0.937
			c0,3.191,0,6.383,0,9.578c0,0.163,0,0.326,0,0.514c0.123,0,0.216,0.027,0.309,0.027c3.346,0,6.691,0,10.035,0
			c0.194,0.011,0.383-0.073,0.507-0.224l0.68-0.698l4.655,4.655l-2.18,2.231c-0.128,0.146-0.317,0.223-0.512,0.209
			c-0.582,0-19.744,0-19.744,0s0-13.25,0-19.455C0.375,29.895,0.375,29.792,0.375,29.673z"/>
		<path d="M66.602,7.509v35.352h7.093V7.509H66.602z"/>
		<path d="M86.205,17.031c0-2.89,2.08-4.256,4.865-4.154c3.039,0.052,4.914,1.873,5.064,4.204h7.799
			c-0.457-6.384-5.42-10.079-12.662-10.079c-7.293,0-12.461,3.849-12.461,10.23c-0.049,12.802,18.186,8.204,18.186,15.854
			c0,2.533-1.975,4.306-5.32,4.306c-3.293,0-5.166-1.872-5.367-4.71h-7.6c0.102,6.691,5.775,10.534,13.119,10.534
			c8.055,0,12.51-5.016,12.51-10.587C104.338,20.171,86.205,24.122,86.205,17.031z"/>
		<path d="M125.566,36.833c-6.18,0-10.588-4.558-10.588-11.698c0-7.193,4.408-11.699,10.588-11.699c3.799,0,6.838,1.669,8.51,5.062
			h8.146c-2.381-7.24-8.762-11.446-16.615-11.446c-10.182,0-17.928,7.495-17.928,18.083c0,10.586,7.748,18.038,17.928,18.038
			c7.855,0,14.234-4.155,16.615-11.45h-8.146C132.404,35.164,129.365,36.833,125.566,36.833z"/>
	</g>
</g>
</svg>
