<?xml version="1.0" encoding="UTF-8"?>
<svg id="Layer_1" data-name="Layer 1" xmlns="http://www.w3.org/2000/svg" viewBox="0 0 690.3 241.54">
  <defs>
    <style>
      .cls-1 {
        fill: #002043;
      }

      .cls-1, .cls-2 {
        stroke-width: 0px;
      }

      .cls-2 {
        fill: #509242;
      }
    </style>
  </defs>
  <g id="nfp-corp-vector-logo">
    <path class="cls-2" d="M147.38,3.69c-1.38-2.24-3.81-3.63-6.44-3.68h-33.82c-1.34,0-2.42,1.08-2.42,2.42,0,.44.12.88.35,1.26l44.75,77.53c1.15,2.03,1.15,4.52,0,6.56l-22.09,38.53c-1.83,3.14-5.85,4.21-9,2.39-.99-.57-1.81-1.4-2.39-2.39l-44.74-77.41c-.23-.46-1.04-.46-1.15,0l-19.9,34.39c-.46.74-.46,1.68,0,2.42l46.13,79.94c1.23,2.06,3.46,3.33,5.87,3.34h38.3c2.65,0,5.1-1.4,6.44-3.68l44.52-77.07c1.27-2.29,1.27-5.07,0-7.36L147.38,3.69Z"/>
    <path class="cls-2" d="M42.93,87.77c-1.15-2.03-1.15-4.52,0-6.56l22.31-38.53c1.83-3.14,5.85-4.21,9-2.39.99.57,1.81,1.4,2.39,2.39l44.63,77.41c.23.46,1.04.46,1.15,0l19.9-34.39c.46-.74.46-1.68,0-2.42L95.96,3.34C94.84,1.22,92.61-.08,90.21,0h-38.3c-2.65,0-5.1,1.4-6.44,3.68L.95,80.75c-1.27,2.29-1.27,5.07,0,7.36l44.52,77.07c1.36,2.26,3.8,3.66,6.44,3.68h33.7c1.34,0,2.42-1.08,2.42-2.42,0-.44-.12-.88-.35-1.26l-44.74-77.41Z"/>
    <path class="cls-2" d="M499.59,70.52h-55.45c-2.91,0-5.28-2.35-5.29-5.26,0,0,0-.02,0-.03v-26.58c0-2.91,2.35-5.28,5.26-5.29,0,0,.02,0,.03,0h60.96c2.91,0,5.28-2.35,5.29-5.26,0,0,0-.02,0-.03V5.41c0-2.91-2.35-5.28-5.26-5.29,0,0-.02,0-.03,0h-99.73c-2.91,0-5.28,2.35-5.29,5.26,0,0,0,.02,0,.03v158.28c0,2.91,2.35,5.28,5.26,5.29,0,0,.02,0,.03,0h28.18c2.91,0,5.28-2.35,5.29-5.26,0,0,0-.02,0-.03v-55.67c0-2.91,2.35-5.28,5.26-5.29,0,0,.02,0,.03,0h55.45c2.91,0,5.28-2.35,5.29-5.26,0,0,0-.02,0-.03v-21.4c.1-2.94-2.2-5.41-5.14-5.51-.05,0-.1,0-.15,0"/>
    <path id="Path_344" data-name="Path 344" class="cls-2" d="M595.87,0h-56.36c-2.91,0-5.28,2.35-5.29,5.26,0,0,0,.02,0,.03v158.28c0,2.91,2.35,5.28,5.26,5.29,0,0,.02,0,.03,0h28.53c2.91,0,5.28-2.35,5.29-5.26v-53.75c0-2.91,2.35-5.28,5.26-5.29,0,0,.02,0,.03,0h16.22c20.24,0,37.04-4.49,48.54-13.11,12.19-9.09,20.47-22.55,20.47-39.8C663.85,8.98,626,0,595.87,0M591.84,73.62h-13c-2.91,0-5.28-2.35-5.29-5.26v-31.66c0-2.91,2.35-5.28,5.26-5.29,0,0,.02,0,.03,0h13.8c12.88,0,29.91,2.07,29.91,20.59-.11,9.89-5.41,21.62-30.71,21.62"/>
    <path class="cls-2" d="M332.11,108.93L271.61,4.15c-1.45-2.5-4.13-4.04-7.02-4.03h-33.59c-2.91,0-5.28,2.35-5.29,5.26,0,0,0,.02,0,.03v158.28c0,2.91,2.35,5.28,5.26,5.29,0,0,.02,0,.03,0h25.19c2.91,0,5.28-2.35,5.29-5.26,0,0,0-.02,0-.03-.12-24.5-.8-104.1-.8-104.1l60.96,105.36c1.45,2.5,4.13,4.04,7.02,4.03h33.01c2.91,0,5.28-2.35,5.29-5.26,0,0,0-.02,0-.03V5.41c0-2.91-2.35-5.28-5.26-5.29,0,0-.02,0-.03,0h-25.19c-2.91,0-5.28,2.35-5.29,5.26,0,0,0,.02,0,.03.11,23.47.92,103.52.92,103.52"/>
    <path id="Path_345" data-name="Path 345" class="cls-2" d="M679.26,16.57c0,.11.11,1.38.23,2.53.11.8.23,1.73.23,2.07h2.99c-.34-1.13-.57-2.28-.69-3.45v-.46c-.46-2.99-1.15-2.99-2.53-3.11,1.71-.37,2.89-1.94,2.76-3.68,0-3.8-3.22-3.8-5.06-3.8h-4.95v14.26h2.65v-5.86h2.65c1.15.11,1.61.46,1.72,1.5M675,13.01v-4.37h2.53c.8,0,2.19,0,2.19,2.07,0,.58-.11,2.19-2.42,2.19h-2.3v.11Z"/>
    <path id="Path_346" data-name="Path 346" class="cls-2" d="M677.19,26.92h0c7.21.03,13.08-5.79,13.11-13,.03-7.21-5.79-13.08-13-13.11-7.21-.03-13.08,5.79-13.11,13h0c.02,7.19,5.81,13.03,13,13.11h0M677.08,24.97c-6.13-.03-11.07-5.03-11.04-11.16.03-6.13,5.03-11.07,11.16-11.04,6.09.03,11.01,4.96,11.04,11.04-.05,6.14-5.01,11.11-11.16,11.16"/>
  </g>
  <g id="Group_3962" data-name="Group 3962">
    <path id="Path_359" data-name="Path 359" class="cls-1" d="M253.6,232.76h-6.79l-2.07-6.36h-11.1l-2.06,6.36h-6.75l10.84-30.62h7.35l10.58,30.62ZM236.61,217.37l-1.25,3.78h7.7l-1.25-3.78-2.58-8.82-2.62,8.82Z"/>
    <path id="Path_360" data-name="Path 360" class="cls-1" d="M273.9,210.98c1.09.64,1.95,1.59,2.49,2.73.6,1.31.89,2.73.86,4.17v14.88h-6.06v-13.5c.06-.99-.23-1.97-.82-2.77-.6-.7-1.49-1.07-2.41-1.01-.81-.02-1.61.22-2.28.67-.68.47-1.21,1.13-1.53,1.89-.38.91-.56,1.88-.54,2.86v11.87h-6.06v-22.19h5.93l.09,3.01c.63-1.12,1.55-2.05,2.67-2.69,1.15-.61,2.44-.91,3.74-.88,1.37-.04,2.72.3,3.91.97"/>
    <path id="Path_361" data-name="Path 361" class="cls-1" d="M321.03,232.76h-6.8l-2.06-6.36h-11.1l-2.06,6.36h-6.75l10.84-30.62h7.35l10.58,30.62ZM304.04,217.37l-1.25,3.78h7.7l-1.25-3.78-2.58-8.82-2.62,8.82Z"/>
    <path id="Path_362" data-name="Path 362" class="cls-1" d="M328.62,231.96c-1.72-1-3.12-2.46-4.04-4.21-1.92-3.77-1.92-8.23,0-12,.93-1.76,2.33-3.22,4.04-4.21,3.65-2.03,8.09-2.03,11.74,0,1.72,1,3.12,2.46,4.04,4.21,1.92,3.77,1.92,8.23,0,12-.93,1.76-2.33,3.22-4.04,4.21-3.65,2.04-8.09,2.04-11.74,0M337.42,227.9c.86-.61,1.53-1.46,1.91-2.45.89-2.39.89-5.01,0-7.4-.39-.99-1.05-1.84-1.91-2.45-1.78-1.14-4.07-1.14-5.85,0-.86.61-1.53,1.47-1.91,2.45-.89,2.39-.89,5.01,0,7.4.38.99,1.05,1.84,1.91,2.45,1.78,1.15,4.07,1.15,5.85,0"/>
    <path id="Path_363" data-name="Path 363" class="cls-1" d="M366.44,210.98c1.09.64,1.95,1.59,2.49,2.73.6,1.31.89,2.73.86,4.17v14.88h-6.06v-13.5c.06-.99-.23-1.97-.82-2.77-.6-.7-1.49-1.07-2.41-1.01-.81-.02-1.61.22-2.28.67-.68.47-1.21,1.13-1.53,1.89-.38.91-.56,1.88-.54,2.86v11.87h-6.06v-22.19h5.93l.09,3.01c.63-1.12,1.55-2.05,2.67-2.69,2.42-1.21,5.27-1.17,7.65.09"/>
    <path id="Path_364" data-name="Path 364" class="cls-1" d="M392.16,231.73c-2.19-1.39-3.95-3.38-5.08-5.72-1.28-2.67-1.91-5.6-1.85-8.56-.07-2.93.56-5.84,1.85-8.47,1.14-2.31,2.92-4.24,5.12-5.57,2.22-1.32,4.77-1.99,7.36-1.96,2.24-.05,4.47.4,6.51,1.31,1.8.81,3.35,2.11,4.47,3.74,1.14,1.72,1.8,3.72,1.92,5.78h-6.06c-.18-1.51-.91-2.91-2.06-3.91-1.27-1-2.86-1.5-4.47-1.42-1.59-.05-3.16.41-4.47,1.31-1.27.93-2.25,2.21-2.82,3.68-.68,1.75-1.01,3.62-.97,5.5-.04,1.94.29,3.86.97,5.68.55,1.51,1.53,2.82,2.82,3.78,1.31.91,2.88,1.38,4.47,1.33,1.65.09,3.27-.46,4.51-1.55,1.1-1.05,1.81-2.45,2.02-3.96h6.02c-.11,2.12-.76,4.17-1.91,5.96-1.11,1.66-2.67,2.96-4.49,3.76-2.06.89-4.29,1.33-6.54,1.29-2.58.04-5.12-.66-7.31-2.02"/>
    <path id="Path_365" data-name="Path 365" class="cls-1" d="M420.69,231.96c-1.72-1-3.12-2.46-4.04-4.21-1.92-3.77-1.92-8.23,0-12,.93-1.76,2.33-3.22,4.04-4.21,3.65-2.03,8.09-2.03,11.74,0,1.71,1,3.11,2.46,4.04,4.21,1.92,3.77,1.92,8.23,0,12-.92,1.76-2.32,3.22-4.04,4.21-3.65,2.04-8.09,2.04-11.74,0M429.48,227.9c.86-.61,1.53-1.46,1.91-2.45.89-2.39.89-5.01,0-7.4-.39-.99-1.05-1.84-1.91-2.45-1.78-1.14-4.07-1.14-5.85,0-.86.61-1.53,1.47-1.92,2.45-.89,2.39-.89,5.01,0,7.4.39.99,1.05,1.84,1.92,2.45,1.78,1.15,4.07,1.15,5.85,0"/>
    <path id="Path_366" data-name="Path 366" class="cls-1" d="M470.96,211c1.08.66,1.93,1.64,2.43,2.8.56,1.3.84,2.71.82,4.13v14.84h-6.06v-13.64c.04-.93-.22-1.85-.73-2.62-.52-.7-1.36-1.09-2.24-1.03-.74-.01-1.47.22-2.06.67-.64.49-1.12,1.14-1.4,1.89-.35.91-.51,1.88-.49,2.86v11.87h-6.06v-13.63c.04-.93-.22-1.85-.73-2.62-.52-.7-1.37-1.09-2.24-1.03-.74-.01-1.47.22-2.06.67-.64.49-1.12,1.14-1.4,1.89-.35.91-.52,1.88-.5,2.86v11.87h-6.06v-22.19h5.93l.09,2.84c1.21-2.17,3.54-3.49,6.02-3.4,1.4-.05,2.78.32,3.98,1.05,1.08.71,1.92,1.74,2.39,2.95.61-1.23,1.54-2.27,2.69-3.01,2.4-1.32,5.3-1.32,7.7,0"/>
    <path id="Path_367" data-name="Path 367" class="cls-1" d="M496.79,211.41c1.44,1.01,2.57,2.4,3.27,4.02.84,1.94,1.25,4.04,1.2,6.15.04,2.14-.38,4.27-1.23,6.23-.72,1.69-1.9,3.14-3.4,4.19-1.45.99-3.17,1.51-4.93,1.48-1.16.02-2.32-.23-3.37-.71-1.02-.48-1.91-1.19-2.6-2.08v10.84h-6.06v-30.96h5.38l.21,2.88c1.53-2.3,4.17-3.61,6.92-3.44,1.64-.01,3.25.47,4.6,1.4M493.02,227.36c.79-.57,1.41-1.37,1.76-2.28.44-1.11.65-2.3.63-3.5.02-1.18-.19-2.36-.63-3.46-.36-.91-.97-1.7-1.76-2.28-1.57-1.06-3.63-1.06-5.2,0-.8.57-1.41,1.37-1.76,2.28-.83,2.23-.83,4.69,0,6.92.36.92.97,1.72,1.76,2.3.76.55,1.67.83,2.6.82.93.01,1.84-.27,2.6-.8"/>
    <path id="Path_368" data-name="Path 368" class="cls-1" d="M519.02,232.76c-.26-1.2-.42-1.95-.47-2.24-.79.93-1.79,1.66-2.92,2.13-1.24.51-2.57.77-3.91.75-1.4.03-2.79-.26-4.06-.84-1.11-.51-2.04-1.33-2.69-2.36-.64-1.07-.97-2.3-.95-3.55-.06-1.62.55-3.19,1.7-4.34,1.42-1.26,3.18-2.08,5.05-2.36l7.74-1.55v-1.64c.04-.73-.32-1.42-.95-1.81-.86-.45-1.83-.66-2.8-.6-.98-.07-1.96.17-2.8.69-.68.55-1.1,1.36-1.16,2.24l-5.55-.09c.03-2.1,1-4.08,2.65-5.4,1.56-1.16,3.84-1.74,6.82-1.74,3.18,0,5.58.7,7.18,2.09,1.69,1.59,2.57,3.86,2.41,6.17v9.8c-.01.91.05,1.81.19,2.71.11.68.33,1.33.67,1.93h-6.14ZM516.03,228.35c.76-.38,1.38-.98,1.81-1.72.46-.83.69-1.78.67-2.73v-1.63l-5.68,1.2c-.8.13-1.54.48-2.15,1.01-.48.47-.75,1.11-.73,1.79-.02.76.32,1.48.93,1.93.75.53,1.65.79,2.56.73.9.02,1.79-.18,2.6-.58"/>
    <path id="Path_369" data-name="Path 369" class="cls-1" d="M546.11,210.98c1.09.64,1.95,1.59,2.49,2.73.6,1.31.89,2.73.86,4.17v14.88h-6.06v-13.5c.06-.99-.23-1.97-.82-2.77-.6-.7-1.49-1.07-2.41-1.01-.81-.02-1.61.22-2.28.67-.68.47-1.21,1.13-1.53,1.89-.38.91-.56,1.88-.54,2.86v11.87h-6.06v-22.19h5.93l.09,3.01c.63-1.12,1.55-2.05,2.67-2.69,2.42-1.21,5.27-1.17,7.65.09"/>
    <path id="Path_370" data-name="Path 370" class="cls-1" d="M568.95,210.57h6.45l-8.86,26.15c-.33,1.06-.84,2.06-1.51,2.95-.52.66-1.21,1.17-2,1.46-.91.29-1.86.43-2.82.41h-5.07v-5.17h2.93c.72.04,1.43-.12,2.06-.45.52-.34.9-.85,1.07-1.44l.21-.6-8.64-23.31h6.67l3.57,10.92c.4,1.23.72,2.31.95,3.22l.39,1.29c.26-.95.69-2.44,1.29-4.47l3.31-10.96Z"/>
  </g>
</svg>